# xmcd
#
# Track frame offsets: 
#        150
#        14547
#        30467
#        46840
#        62257
#        78740
#        94580
#        112162
#        129617
#        143100
#        156307
#        170842
#        185587
#        201115
#        220287
#        236057
#
# Disc length: 3334 seconds
#
# Revision: 1
# Processed by: cddbd v1.4PL0 Copyright (c) Steve Scherf et al.
# Submitted via: ExactAudioCopy v0.90b4
#
DISCID=e50d0410
DTITLE=Molejo - Né Brinquedo Não
DYEAR=2002
DGENRE=Pagode
TTITLE0=Né Brinquedo Não
TTITLE1=Caçamba
TTITLE2=Paparico
TTITLE3=Dança da Vassoura
TTITLE4=Brincadeira de Criança
TTITLE5=Pagoxu
TTITLE6=Assim Oh!
TTITLE7=Samba Rock do Molejão
TTITLE8=Pensamento Verde
TTITLE9=Mistura de Pele
TTITLE10=Não Quero Saber de Ti Ti Ti
TTITLE11=Clínica Geral
TTITLE12=Samba Diferente
TTITLE13=Polivalência
TTITLE14=Vem Zuar
TTITLE15=Dia de Alegria
EXTD=
EXTT0=
EXTT1=
EXTT2=
EXTT3=
EXTT4=
EXTT5=
EXTT6=
EXTT7=
EXTT8=
EXTT9=
EXTT10=
EXTT11=
EXTT12=
EXTT13=
EXTT14=
EXTT15=
PLAYORDER=
